<mxfile host="app.diagrams.net" modified="2020-11-12T07:37:09.744Z" agent="5.0 (Windows NT 10.0; Win64; x64) AppleWebKit/537.36 (KHTML, like Gecko) Chrome/86.0.4240.111 Safari/537.36" etag="Gsg9OkjBzWkttbg_g5Ew" version="13.9.1" type="github">
  <diagram id="a9xWCEwnpVEeIXBJkN2v" name="Page-5">
    <mxGraphModel dx="1422" dy="794" grid="1" gridSize="10" guides="1" tooltips="1" connect="1" arrows="1" fold="1" page="1" pageScale="1" pageWidth="827" pageHeight="1169" math="0" shadow="0">
      <root>
        <mxCell id="_sOQdATYZZMaT-qopSS8-0" />
        <mxCell id="_sOQdATYZZMaT-qopSS8-1" parent="_sOQdATYZZMaT-qopSS8-0" />
        <mxCell id="RmF8rrvMvzuQaB33yWGe-4" value="" style="rounded=0;whiteSpace=wrap;html=1;fillColor=#ffe6cc;strokeColor=#d79b00;" parent="_sOQdATYZZMaT-qopSS8-1" vertex="1">
          <mxGeometry x="1130" y="90" width="450" height="1000" as="geometry" />
        </mxCell>
        <mxCell id="VveefS2Lsn5nwEsutOwT-69" value="" style="rounded=0;whiteSpace=wrap;html=1;fillColor=#b0e3e6;strokeColor=#0e8088;" parent="_sOQdATYZZMaT-qopSS8-1" vertex="1">
          <mxGeometry x="40" y="770" width="1080" height="320" as="geometry" />
        </mxCell>
        <mxCell id="VveefS2Lsn5nwEsutOwT-68" value="" style="rounded=0;whiteSpace=wrap;html=1;fillColor=#d5e8d4;strokeColor=#82b366;" parent="_sOQdATYZZMaT-qopSS8-1" vertex="1">
          <mxGeometry x="50" y="95" width="480" height="635" as="geometry" />
        </mxCell>
        <mxCell id="VveefS2Lsn5nwEsutOwT-67" value="" style="rounded=0;whiteSpace=wrap;html=1;fillColor=#e1d5e7;strokeColor=#9673a6;" parent="_sOQdATYZZMaT-qopSS8-1" vertex="1">
          <mxGeometry x="540" y="95" width="580" height="635" as="geometry" />
        </mxCell>
        <mxCell id="VveefS2Lsn5nwEsutOwT-2" style="edgeStyle=orthogonalEdgeStyle;rounded=0;orthogonalLoop=1;jettySize=auto;html=1;exitX=1;exitY=0.5;exitDx=0;exitDy=0;entryX=0;entryY=0.5;entryDx=0;entryDy=0;" parent="_sOQdATYZZMaT-qopSS8-1" source="VveefS2Lsn5nwEsutOwT-0" target="VveefS2Lsn5nwEsutOwT-1" edge="1">
          <mxGeometry relative="1" as="geometry" />
        </mxCell>
        <mxCell id="VveefS2Lsn5nwEsutOwT-0" value="1台：gateway网关&lt;br&gt;172.16.10.240&lt;br&gt;cpu:8&amp;nbsp;&lt;span&gt;内存&lt;/span&gt;&lt;span lang=&quot;EN-US&quot;&gt;8G&amp;nbsp; &lt;/span&gt;&lt;span&gt;磁盘：&lt;/span&gt;&lt;span lang=&quot;EN-US&quot;&gt;0.1T&lt;/span&gt;" style="rounded=0;whiteSpace=wrap;html=1;" parent="_sOQdATYZZMaT-qopSS8-1" vertex="1">
          <mxGeometry x="80" y="290" width="150" height="70" as="geometry" />
        </mxCell>
        <mxCell id="VveefS2Lsn5nwEsutOwT-64" style="edgeStyle=orthogonalEdgeStyle;rounded=0;orthogonalLoop=1;jettySize=auto;html=1;exitX=1;exitY=0.5;exitDx=0;exitDy=0;" parent="_sOQdATYZZMaT-qopSS8-1" source="VveefS2Lsn5nwEsutOwT-1" target="VveefS2Lsn5nwEsutOwT-63" edge="1">
          <mxGeometry relative="1" as="geometry" />
        </mxCell>
        <mxCell id="VveefS2Lsn5nwEsutOwT-1" value="&amp;nbsp;科研平台&lt;br&gt;172.16.10.197&lt;br&gt;&lt;span&gt;&lt;br&gt;Cpu&lt;/span&gt;&lt;span lang=&quot;EN-US&quot;&gt;:8&amp;nbsp;&lt;/span&gt;内存&lt;span lang=&quot;EN-US&quot;&gt;:32G&lt;span&gt;磁盘：&lt;/span&gt;&lt;span lang=&quot;EN-US&quot;&gt;0.1t&lt;/span&gt;&lt;br&gt;&lt;/span&gt;" style="rounded=0;whiteSpace=wrap;html=1;" parent="_sOQdATYZZMaT-qopSS8-1" vertex="1">
          <mxGeometry x="290" y="290" width="150" height="70" as="geometry" />
        </mxCell>
        <mxCell id="VveefS2Lsn5nwEsutOwT-54" style="edgeStyle=orthogonalEdgeStyle;rounded=0;orthogonalLoop=1;jettySize=auto;html=1;exitX=0.5;exitY=1;exitDx=0;exitDy=0;" parent="_sOQdATYZZMaT-qopSS8-1" source="VveefS2Lsn5nwEsutOwT-3" target="VveefS2Lsn5nwEsutOwT-50" edge="1">
          <mxGeometry relative="1" as="geometry" />
        </mxCell>
        <mxCell id="VveefS2Lsn5nwEsutOwT-3" value="&lt;p class=&quot;MsoNormal&quot; align=&quot;center&quot;&gt;&lt;/p&gt;dataX-win2012&lt;br&gt;172.16.10.215&lt;br&gt;cpu :8&lt;span style=&quot;font-size: 10.5pt&quot;&gt;内存&lt;/span&gt;&lt;span lang=&quot;EN-US&quot; style=&quot;font-size: 10.5pt ; font-family: &amp;#34;calibri&amp;#34; , &amp;#34;sans-serif&amp;#34;&quot;&gt;:16G&amp;nbsp;&lt;/span&gt;&lt;span style=&quot;font-size: 10.5pt&quot;&gt;磁盘&lt;/span&gt;&lt;span lang=&quot;EN-US&quot; style=&quot;font-size: 10.5pt ; font-family: &amp;#34;calibri&amp;#34; , &amp;#34;sans-serif&amp;#34;&quot;&gt;:0.2T&lt;/span&gt;" style="rounded=0;whiteSpace=wrap;html=1;" parent="_sOQdATYZZMaT-qopSS8-1" vertex="1">
          <mxGeometry x="593.25" y="160" width="160" height="70" as="geometry" />
        </mxCell>
        <mxCell id="VveefS2Lsn5nwEsutOwT-4" value="" style="rounded=0;whiteSpace=wrap;html=1;" parent="_sOQdATYZZMaT-qopSS8-1" vertex="1">
          <mxGeometry x="170" y="780" width="170" height="150" as="geometry" />
        </mxCell>
        <mxCell id="VveefS2Lsn5nwEsutOwT-7" value="&lt;span&gt;R2:172.16.10.212&lt;/span&gt;" style="rounded=0;whiteSpace=wrap;html=1;" parent="_sOQdATYZZMaT-qopSS8-1" vertex="1">
          <mxGeometry x="663.25" y="500" width="110" height="30" as="geometry" />
        </mxCell>
        <mxCell id="VveefS2Lsn5nwEsutOwT-8" value="&lt;span&gt;R4:172.16.10.214&lt;/span&gt;" style="rounded=0;whiteSpace=wrap;html=1;" parent="_sOQdATYZZMaT-qopSS8-1" vertex="1">
          <mxGeometry x="663.25" y="550" width="110" height="30" as="geometry" />
        </mxCell>
        <mxCell id="VveefS2Lsn5nwEsutOwT-9" value="4台：疫情网站R实时计算*4&lt;br&gt;&lt;span&gt;Centos&lt;/span&gt;&lt;span&gt;&amp;nbsp;&amp;nbsp;&lt;/span&gt;&lt;span&gt;cpu:8&amp;nbsp;&lt;/span&gt;&lt;span&gt;内存&lt;/span&gt;&lt;span lang=&quot;EN-US&quot;&gt;:32G&amp;nbsp;&lt;/span&gt;&lt;span&gt;磁盘&lt;/span&gt;&lt;span lang=&quot;EN-US&quot;&gt;:0.1t&lt;br&gt;&lt;/span&gt;&lt;span&gt;共计：32核128G 0.4T&lt;br&gt;&lt;/span&gt;" style="rounded=0;whiteSpace=wrap;html=1;fillColor=#fff2cc;strokeColor=#d6b656;" parent="_sOQdATYZZMaT-qopSS8-1" vertex="1">
          <mxGeometry x="180" y="790" width="150" height="60" as="geometry" />
        </mxCell>
        <mxCell id="VveefS2Lsn5nwEsutOwT-10" value="" style="rounded=0;whiteSpace=wrap;html=1;fillColor=#f8cecc;strokeColor=#b85450;" parent="_sOQdATYZZMaT-qopSS8-1" vertex="1">
          <mxGeometry x="558.25" y="390" width="230" height="280" as="geometry" />
        </mxCell>
        <mxCell id="VveefS2Lsn5nwEsutOwT-11" value="Master: 16核 7T *2&lt;br&gt;172.16.10.101-102" style="rounded=0;whiteSpace=wrap;html=1;" parent="_sOQdATYZZMaT-qopSS8-1" vertex="1">
          <mxGeometry x="568.25" y="490" width="200" height="40" as="geometry" />
        </mxCell>
        <mxCell id="VveefS2Lsn5nwEsutOwT-15" value="Seg ：&amp;nbsp; 2T&amp;nbsp; 16核心&lt;br&gt;172.16.10.103&lt;br&gt;172.16.10.104&lt;br&gt;172.16.10.105" style="rounded=0;whiteSpace=wrap;html=1;" parent="_sOQdATYZZMaT-qopSS8-1" vertex="1">
          <mxGeometry x="568.25" y="540" width="200" height="70" as="geometry" />
        </mxCell>
        <mxCell id="VveefS2Lsn5nwEsutOwT-19" value="R1:172.16.10.210&lt;br&gt;R2:172.16.10.211&lt;br&gt;R3:172.16.10.212&lt;br&gt;R4:172.16.10.214" style="rounded=0;whiteSpace=wrap;html=1;" parent="_sOQdATYZZMaT-qopSS8-1" vertex="1">
          <mxGeometry x="185" y="855.83" width="140" height="65" as="geometry" />
        </mxCell>
        <mxCell id="VveefS2Lsn5nwEsutOwT-23" value="&lt;p class=&quot;MsoNormal&quot; style=&quot;font-size: 11px&quot;&gt;&lt;span lang=&quot;EN-US&quot; style=&quot;font-size: 11px&quot;&gt;&lt;font style=&quot;font-size: 11px&quot;&gt;6台：Greenplum-CentOS74&amp;nbsp;&amp;nbsp;&lt;/font&gt;&lt;/span&gt;&lt;/p&gt;&lt;p class=&quot;MsoNormal&quot; style=&quot;font-size: 11px&quot;&gt;&lt;font&gt;内存&lt;span lang=&quot;EN-US&quot;&gt;:384G&amp;nbsp;&lt;/span&gt;&lt;/font&gt;&lt;span&gt;硬盘： 22T&amp;nbsp;&amp;nbsp;&lt;/span&gt;&lt;span&gt;CPU: 88核&lt;/span&gt;&lt;/p&gt;" style="rounded=0;whiteSpace=wrap;html=1;fillColor=#fff2cc;strokeColor=#d6b656;" parent="_sOQdATYZZMaT-qopSS8-1" vertex="1">
          <mxGeometry x="568.25" y="410" width="205" height="60" as="geometry" />
        </mxCell>
        <mxCell id="VveefS2Lsn5nwEsutOwT-24" value="ETL： 硬盘：2T 8核心&lt;br&gt;172.16.10.231&amp;nbsp;" style="rounded=0;whiteSpace=wrap;html=1;" parent="_sOQdATYZZMaT-qopSS8-1" vertex="1">
          <mxGeometry x="568.25" y="620" width="202.5" height="40" as="geometry" />
        </mxCell>
        <mxCell id="VveefS2Lsn5nwEsutOwT-27" style="edgeStyle=orthogonalEdgeStyle;rounded=0;orthogonalLoop=1;jettySize=auto;html=1;exitX=0.5;exitY=1;exitDx=0;exitDy=0;" parent="_sOQdATYZZMaT-qopSS8-1" source="VveefS2Lsn5nwEsutOwT-26" target="VveefS2Lsn5nwEsutOwT-1" edge="1">
          <mxGeometry relative="1" as="geometry" />
        </mxCell>
        <mxCell id="VveefS2Lsn5nwEsutOwT-26" value="1台：sso单点登录&lt;br&gt;172.16.10.106&lt;br&gt;cpu:8&amp;nbsp;&lt;span&gt;内存&lt;/span&gt;&lt;span lang=&quot;EN-US&quot;&gt;8G&amp;nbsp; &lt;/span&gt;&lt;span&gt;磁盘：&lt;/span&gt;&lt;span lang=&quot;EN-US&quot;&gt;0.1T&lt;/span&gt;" style="rounded=0;whiteSpace=wrap;html=1;" parent="_sOQdATYZZMaT-qopSS8-1" vertex="1">
          <mxGeometry x="280" y="160" width="170" height="70" as="geometry" />
        </mxCell>
        <mxCell id="VveefS2Lsn5nwEsutOwT-29" value="&lt;p class=&quot;MsoNormal&quot;&gt;&lt;span lang=&quot;EN-US&quot;&gt;File-CentOS74&amp;nbsp;&lt;/span&gt;&lt;/p&gt;&lt;p class=&quot;MsoNormal&quot;&gt;&lt;span lang=&quot;EN-US&quot;&gt;172.16.10.201&amp;nbsp;&lt;/span&gt;&lt;/p&gt;&lt;p class=&quot;MsoNormal&quot;&gt;&lt;span lang=&quot;EN-US&quot;&gt;cpu:8&amp;nbsp;&lt;/span&gt;&lt;span&gt;内存&lt;/span&gt;&lt;span lang=&quot;EN-US&quot;&gt;:8G&amp;nbsp; &lt;/span&gt;&lt;span&gt;磁盘&lt;/span&gt;&lt;span lang=&quot;EN-US&quot;&gt;:0.1T&lt;/span&gt;&lt;/p&gt;" style="rounded=0;whiteSpace=wrap;html=1;" parent="_sOQdATYZZMaT-qopSS8-1" vertex="1">
          <mxGeometry x="938.25" y="290" width="150" height="70" as="geometry" />
        </mxCell>
        <mxCell id="VveefS2Lsn5nwEsutOwT-31" value="&lt;p class=&quot;MsoNormal&quot; align=&quot;center&quot;&gt;&lt;span lang=&quot;EN-US&quot;&gt;235：RStudioServer&amp;nbsp;&amp;nbsp;&lt;/span&gt;&lt;/p&gt;&lt;p class=&quot;MsoNormal&quot; align=&quot;center&quot;&gt;&lt;span lang=&quot;EN-US&quot;&gt;cpu:8&amp;nbsp;&lt;/span&gt;&lt;span&gt;内存&lt;/span&gt;&lt;span lang=&quot;EN-US&quot;&gt;:64G&amp;nbsp;&lt;/span&gt;&lt;span&gt;磁盘&lt;/span&gt;&lt;span lang=&quot;EN-US&quot;&gt;:4.1T&lt;/span&gt;&lt;/p&gt;" style="rounded=0;whiteSpace=wrap;html=1;fillColor=#dae8fc;strokeColor=#6c8ebf;" parent="_sOQdATYZZMaT-qopSS8-1" vertex="1">
          <mxGeometry x="560.25" y="823.17" width="181.25" height="50" as="geometry" />
        </mxCell>
        <mxCell id="RmF8rrvMvzuQaB33yWGe-5" style="edgeStyle=orthogonalEdgeStyle;rounded=0;orthogonalLoop=1;jettySize=auto;html=1;exitX=1;exitY=0.5;exitDx=0;exitDy=0;entryX=0;entryY=0.5;entryDx=0;entryDy=0;" parent="_sOQdATYZZMaT-qopSS8-1" source="VveefS2Lsn5nwEsutOwT-32" target="uSNJX9DwxcgCSr0mQPIk-10" edge="1">
          <mxGeometry relative="1" as="geometry" />
        </mxCell>
        <mxCell id="VveefS2Lsn5nwEsutOwT-32" value="&lt;p class=&quot;MsoNormal&quot; align=&quot;center&quot;&gt;&lt;span lang=&quot;EN-US&quot;&gt;239：RStudioServer&amp;nbsp;&amp;nbsp;&lt;/span&gt;&lt;/p&gt;&lt;p class=&quot;MsoNormal&quot; align=&quot;center&quot;&gt;&lt;span lang=&quot;EN-US&quot;&gt;cpu:8&amp;nbsp;&lt;/span&gt;&lt;span&gt;内存&lt;/span&gt;&lt;span lang=&quot;EN-US&quot;&gt;:64G&amp;nbsp;&lt;/span&gt;&lt;span&gt;磁盘&lt;/span&gt;&lt;span lang=&quot;EN-US&quot;&gt;:4.1T&lt;/span&gt;&lt;/p&gt;" style="rounded=0;whiteSpace=wrap;html=1;fillColor=#dae8fc;strokeColor=#6c8ebf;" parent="_sOQdATYZZMaT-qopSS8-1" vertex="1">
          <mxGeometry x="559" y="879.17" width="182.5" height="50" as="geometry" />
        </mxCell>
        <mxCell id="VveefS2Lsn5nwEsutOwT-33" value="&lt;p class=&quot;MsoNormal&quot;&gt;&lt;span lang=&quot;EN-US&quot;&gt;172.16.10.60:HPC-MGMT&amp;nbsp;&lt;br&gt;cpu :50&amp;nbsp;&amp;nbsp;&lt;/span&gt;&lt;span&gt;内存&lt;/span&gt;&lt;span lang=&quot;EN-US&quot;&gt;:64G&amp;nbsp;&lt;/span&gt;&lt;span&gt;磁盘&lt;/span&gt;&lt;span lang=&quot;EN-US&quot;&gt;:205.247T&lt;/span&gt;&lt;/p&gt;" style="rounded=0;whiteSpace=wrap;html=1;fillColor=#dae8fc;strokeColor=#6c8ebf;" parent="_sOQdATYZZMaT-qopSS8-1" vertex="1">
          <mxGeometry x="559.63" y="939.17" width="182.5" height="50" as="geometry" />
        </mxCell>
        <mxCell id="VveefS2Lsn5nwEsutOwT-46" value="" style="rounded=0;whiteSpace=wrap;html=1;" parent="_sOQdATYZZMaT-qopSS8-1" vertex="1">
          <mxGeometry x="811.75" y="390" width="190" height="190" as="geometry" />
        </mxCell>
        <mxCell id="VveefS2Lsn5nwEsutOwT-47" value="5台：hadoop*5&lt;br&gt;&lt;span&gt;Centos&lt;/span&gt;&lt;span&gt;&amp;nbsp;&amp;nbsp;&lt;/span&gt;&lt;span&gt;cpu:40&amp;nbsp;&lt;/span&gt;&lt;span&gt;内存&lt;/span&gt;&lt;span lang=&quot;EN-US&quot;&gt;:208G&amp;nbsp;&lt;/span&gt;&lt;span&gt;磁盘&lt;/span&gt;&lt;span lang=&quot;EN-US&quot;&gt;:36T&lt;/span&gt;&lt;span&gt;&lt;br&gt;&lt;/span&gt;" style="rounded=0;whiteSpace=wrap;html=1;fillColor=#fff2cc;strokeColor=#d6b656;" parent="_sOQdATYZZMaT-qopSS8-1" vertex="1">
          <mxGeometry x="821.75" y="400" width="170" height="60" as="geometry" />
        </mxCell>
        <mxCell id="VveefS2Lsn5nwEsutOwT-48" value="NODE1:172.16.10.141(64G)&lt;br&gt;NODE2:172.16.10.142(32G)&lt;br&gt;NODE3:172.16.10.143(48G)&lt;br&gt;NODE4:172.16.10.144(32G)&lt;br&gt;NODE4:172.16.10.145(32G)" style="rounded=0;whiteSpace=wrap;html=1;" parent="_sOQdATYZZMaT-qopSS8-1" vertex="1">
          <mxGeometry x="821.75" y="470" width="170" height="100" as="geometry" />
        </mxCell>
        <mxCell id="VveefS2Lsn5nwEsutOwT-53" style="edgeStyle=orthogonalEdgeStyle;rounded=0;orthogonalLoop=1;jettySize=auto;html=1;exitX=1;exitY=0.5;exitDx=0;exitDy=0;exitPerimeter=0;entryX=0.5;entryY=0;entryDx=0;entryDy=0;" parent="_sOQdATYZZMaT-qopSS8-1" source="VveefS2Lsn5nwEsutOwT-50" target="VveefS2Lsn5nwEsutOwT-46" edge="1">
          <mxGeometry relative="1" as="geometry" />
        </mxCell>
        <mxCell id="VveefS2Lsn5nwEsutOwT-61" style="edgeStyle=orthogonalEdgeStyle;rounded=0;orthogonalLoop=1;jettySize=auto;html=1;exitX=1;exitY=0.5;exitDx=0;exitDy=0;exitPerimeter=0;" parent="_sOQdATYZZMaT-qopSS8-1" source="VveefS2Lsn5nwEsutOwT-50" target="VveefS2Lsn5nwEsutOwT-29" edge="1">
          <mxGeometry relative="1" as="geometry" />
        </mxCell>
        <mxCell id="VveefS2Lsn5nwEsutOwT-62" style="edgeStyle=orthogonalEdgeStyle;rounded=0;orthogonalLoop=1;jettySize=auto;html=1;exitX=1;exitY=0.5;exitDx=0;exitDy=0;exitPerimeter=0;entryX=0;entryY=0.5;entryDx=0;entryDy=0;" parent="_sOQdATYZZMaT-qopSS8-1" source="VveefS2Lsn5nwEsutOwT-50" target="VveefS2Lsn5nwEsutOwT-60" edge="1">
          <mxGeometry relative="1" as="geometry" />
        </mxCell>
        <mxCell id="VveefS2Lsn5nwEsutOwT-66" style="edgeStyle=orthogonalEdgeStyle;rounded=0;orthogonalLoop=1;jettySize=auto;html=1;exitX=0.5;exitY=1;exitDx=0;exitDy=0;exitPerimeter=0;" parent="_sOQdATYZZMaT-qopSS8-1" source="VveefS2Lsn5nwEsutOwT-50" target="VveefS2Lsn5nwEsutOwT-10" edge="1">
          <mxGeometry relative="1" as="geometry" />
        </mxCell>
        <mxCell id="VveefS2Lsn5nwEsutOwT-50" value="数据湖" style="shape=cylinder3;whiteSpace=wrap;html=1;boundedLbl=1;backgroundOutline=1;size=15;" parent="_sOQdATYZZMaT-qopSS8-1" vertex="1">
          <mxGeometry x="643.25" y="285" width="60" height="80" as="geometry" />
        </mxCell>
        <mxCell id="VveefS2Lsn5nwEsutOwT-55" value="" style="rounded=0;whiteSpace=wrap;html=1;" parent="_sOQdATYZZMaT-qopSS8-1" vertex="1">
          <mxGeometry x="170" y="939.17" width="170" height="140" as="geometry" />
        </mxCell>
        <mxCell id="VveefS2Lsn5nwEsutOwT-56" value="3台：Jupyter&lt;br&gt;&lt;span&gt;Centos&lt;/span&gt;&lt;span&gt;&amp;nbsp;&amp;nbsp;&lt;/span&gt;&lt;span&gt;cpu:4&amp;nbsp;&lt;/span&gt;&lt;span lang=&quot;EN-US&quot;&gt;&amp;nbsp;&lt;/span&gt;&lt;span&gt;磁盘&lt;/span&gt;&lt;span lang=&quot;EN-US&quot;&gt;:0.1t&lt;br&gt;&lt;/span&gt;&lt;span&gt;共计：12核64G 0.8T&lt;br&gt;&lt;/span&gt;" style="rounded=0;whiteSpace=wrap;html=1;fillColor=#fff2cc;strokeColor=#d6b656;" parent="_sOQdATYZZMaT-qopSS8-1" vertex="1">
          <mxGeometry x="180" y="949.17" width="140" height="60" as="geometry" />
        </mxCell>
        <mxCell id="VveefS2Lsn5nwEsutOwT-57" value="N1:172.16.10.151(32G)&lt;br&gt;N2:172.16.10.152(16G)&lt;br&gt;N3:172.16.10.153(16G)" style="rounded=0;whiteSpace=wrap;html=1;" parent="_sOQdATYZZMaT-qopSS8-1" vertex="1">
          <mxGeometry x="180" y="1019.1700000000001" width="140" height="50" as="geometry" />
        </mxCell>
        <mxCell id="VveefS2Lsn5nwEsutOwT-59" value="FusionSphere&amp;nbsp;&amp;nbsp;&lt;br&gt;172.16.10.99&lt;br&gt;cpu :4&amp;nbsp;&amp;nbsp;&lt;span&gt;内存&lt;/span&gt;&lt;span lang=&quot;EN-US&quot;&gt;8G&amp;nbsp; &amp;nbsp;&lt;/span&gt;&lt;span lang=&quot;EN-US&quot;&gt;0.5T&lt;/span&gt;" style="rounded=0;whiteSpace=wrap;html=1;" parent="_sOQdATYZZMaT-qopSS8-1" vertex="1">
          <mxGeometry x="80" y="370" width="150" height="70" as="geometry" />
        </mxCell>
        <mxCell id="VveefS2Lsn5nwEsutOwT-60" value="&lt;p class=&quot;MsoNormal&quot; align=&quot;center&quot;&gt;&lt;span lang=&quot;EN-US&quot;&gt;SQLServer-Win2008R&lt;/span&gt;&lt;/p&gt;&lt;p class=&quot;MsoNormal&quot; align=&quot;center&quot;&gt;&lt;span&gt;172.16.10.140&amp;nbsp;&lt;/span&gt;&lt;/p&gt;cpu:16&amp;nbsp;&lt;span&gt;内存&lt;/span&gt;&lt;span lang=&quot;EN-US&quot;&gt;:64G &lt;/span&gt;&lt;span&gt;磁盘&lt;/span&gt;&lt;span lang=&quot;EN-US&quot;&gt;:2.5T&lt;/span&gt;" style="rounded=0;whiteSpace=wrap;html=1;" parent="_sOQdATYZZMaT-qopSS8-1" vertex="1">
          <mxGeometry x="938.25" y="200" width="150" height="80" as="geometry" />
        </mxCell>
        <mxCell id="VveefS2Lsn5nwEsutOwT-65" style="edgeStyle=orthogonalEdgeStyle;rounded=0;orthogonalLoop=1;jettySize=auto;html=1;exitX=1;exitY=0.5;exitDx=0;exitDy=0;" parent="_sOQdATYZZMaT-qopSS8-1" source="VveefS2Lsn5nwEsutOwT-63" target="VveefS2Lsn5nwEsutOwT-50" edge="1">
          <mxGeometry relative="1" as="geometry" />
        </mxCell>
        <mxCell id="VveefS2Lsn5nwEsutOwT-71" style="edgeStyle=orthogonalEdgeStyle;rounded=0;orthogonalLoop=1;jettySize=auto;html=1;exitX=0.5;exitY=1;exitDx=0;exitDy=0;" parent="_sOQdATYZZMaT-qopSS8-1" source="VveefS2Lsn5nwEsutOwT-63" target="VveefS2Lsn5nwEsutOwT-70" edge="1">
          <mxGeometry relative="1" as="geometry" />
        </mxCell>
        <mxCell id="VveefS2Lsn5nwEsutOwT-63" value="应用" style="ellipse;whiteSpace=wrap;html=1;aspect=fixed;" parent="_sOQdATYZZMaT-qopSS8-1" vertex="1">
          <mxGeometry x="460" y="297.5" width="55" height="55" as="geometry" />
        </mxCell>
        <mxCell id="RmF8rrvMvzuQaB33yWGe-7" style="edgeStyle=orthogonalEdgeStyle;rounded=0;orthogonalLoop=1;jettySize=auto;html=1;exitX=0.5;exitY=1;exitDx=0;exitDy=0;entryX=0.5;entryY=0;entryDx=0;entryDy=0;" parent="_sOQdATYZZMaT-qopSS8-1" source="VveefS2Lsn5nwEsutOwT-70" target="RmF8rrvMvzuQaB33yWGe-6" edge="1">
          <mxGeometry relative="1" as="geometry" />
        </mxCell>
        <mxCell id="VveefS2Lsn5nwEsutOwT-70" value="计算" style="rhombus;whiteSpace=wrap;html=1;" parent="_sOQdATYZZMaT-qopSS8-1" vertex="1">
          <mxGeometry x="447.5" y="480" width="80" height="60" as="geometry" />
        </mxCell>
        <mxCell id="VveefS2Lsn5nwEsutOwT-75" style="edgeStyle=orthogonalEdgeStyle;rounded=0;orthogonalLoop=1;jettySize=auto;html=1;exitX=1;exitY=0.3333333333333333;exitDx=0;exitDy=0;exitPerimeter=0;entryX=0;entryY=0.5;entryDx=0;entryDy=0;" parent="_sOQdATYZZMaT-qopSS8-1" target="VveefS2Lsn5nwEsutOwT-32" edge="1">
          <mxGeometry relative="1" as="geometry">
            <mxPoint x="499" y="905.8366666666668" as="sourcePoint" />
          </mxGeometry>
        </mxCell>
        <mxCell id="VveefS2Lsn5nwEsutOwT-76" style="edgeStyle=orthogonalEdgeStyle;rounded=0;orthogonalLoop=1;jettySize=auto;html=1;exitX=1;exitY=0.3333333333333333;exitDx=0;exitDy=0;exitPerimeter=0;entryX=0;entryY=0.5;entryDx=0;entryDy=0;" parent="_sOQdATYZZMaT-qopSS8-1" target="VveefS2Lsn5nwEsutOwT-33" edge="1">
          <mxGeometry relative="1" as="geometry">
            <mxPoint x="499" y="905.8366666666668" as="sourcePoint" />
          </mxGeometry>
        </mxCell>
        <mxCell id="VveefS2Lsn5nwEsutOwT-80" style="edgeStyle=orthogonalEdgeStyle;rounded=0;orthogonalLoop=1;jettySize=auto;html=1;exitX=1;exitY=0.5;exitDx=0;exitDy=0;entryX=0;entryY=0.5;entryDx=0;entryDy=0;" parent="_sOQdATYZZMaT-qopSS8-1" source="RmF8rrvMvzuQaB33yWGe-6" target="VveefS2Lsn5nwEsutOwT-31" edge="1">
          <mxGeometry relative="1" as="geometry">
            <mxPoint x="499" y="905.8366666666668" as="sourcePoint" />
          </mxGeometry>
        </mxCell>
        <mxCell id="VveefS2Lsn5nwEsutOwT-82" value="&lt;p class=&quot;MsoNormal&quot; align=&quot;center&quot;&gt;&lt;span lang=&quot;EN-US&quot;&gt;Plt-java-centos&lt;/span&gt;&lt;/p&gt;&lt;p class=&quot;MsoNormal&quot; align=&quot;center&quot;&gt;&lt;span&gt;172.16.10.220&lt;/span&gt;&lt;/p&gt;&lt;span lang=&quot;EN-US&quot;&gt;内存：&lt;span lang=&quot;EN-US&quot;&gt;8G&lt;/span&gt;Cpu:8&amp;nbsp; &lt;/span&gt;&lt;span&gt;磁盘&lt;/span&gt;&lt;span lang=&quot;EN-US&quot;&gt;:01.t&lt;/span&gt;" style="rounded=0;whiteSpace=wrap;html=1;" parent="_sOQdATYZZMaT-qopSS8-1" vertex="1">
          <mxGeometry x="1184.25" y="185" width="160" height="80" as="geometry" />
        </mxCell>
        <mxCell id="VveefS2Lsn5nwEsutOwT-83" value="&lt;p class=&quot;MsoNormal&quot; align=&quot;center&quot;&gt;&lt;span lang=&quot;EN-US&quot;&gt;Eserviceclient &lt;/span&gt;&lt;span&gt;内存：&lt;/span&gt;&lt;span lang=&quot;EN-US&quot;&gt;8G&lt;/span&gt;&lt;/p&gt;&lt;p class=&quot;MsoNormal&quot; align=&quot;center&quot;&gt;&lt;span lang=&quot;EN-US&quot;&gt;172.16.10.92&lt;/span&gt;&lt;/p&gt;&lt;span&gt;Cpu&lt;/span&gt;&lt;span lang=&quot;EN-US&quot;&gt;:2&amp;nbsp; &lt;/span&gt;&lt;span&gt;磁盘&lt;/span&gt;&lt;span lang=&quot;EN-US&quot;&gt;: 0.5T&lt;/span&gt;&lt;span&gt;&lt;br&gt;&lt;/span&gt;" style="rounded=0;whiteSpace=wrap;html=1;" parent="_sOQdATYZZMaT-qopSS8-1" vertex="1">
          <mxGeometry x="1184.25" y="285" width="160" height="80" as="geometry" />
        </mxCell>
        <mxCell id="VveefS2Lsn5nwEsutOwT-84" value="&lt;span lang=&quot;EN-US&quot;&gt;172.16.8.7\&lt;/span&gt;&lt;span lang=&quot;EN-US&quot;&gt;172.16.9.8\&lt;/span&gt;&lt;br&gt;&lt;p class=&quot;MsoNormal&quot; align=&quot;center&quot;&gt;&lt;span lang=&quot;EN-US&quot;&gt;172.16.11.9\&lt;/span&gt;&lt;span&gt;172.16.10.91&lt;/span&gt;&lt;/p&gt;&lt;span&gt;Ebackup&lt;br&gt;&lt;/span&gt;&lt;span&gt;cpu:4&lt;/span&gt;&lt;span&gt;内存：&lt;/span&gt;&lt;span lang=&quot;EN-US&quot;&gt;12G &lt;/span&gt;&lt;span&gt;磁盘&lt;/span&gt;&lt;span lang=&quot;EN-US&quot;&gt;0.12T&lt;/span&gt;" style="rounded=0;whiteSpace=wrap;html=1;" parent="_sOQdATYZZMaT-qopSS8-1" vertex="1">
          <mxGeometry x="1184.25" y="385" width="160" height="90" as="geometry" />
        </mxCell>
        <mxCell id="VveefS2Lsn5nwEsutOwT-85" value="" style="rounded=0;whiteSpace=wrap;html=1;" parent="_sOQdATYZZMaT-qopSS8-1" vertex="1">
          <mxGeometry x="1361.75" y="185" width="190" height="140" as="geometry" />
        </mxCell>
        <mxCell id="VveefS2Lsn5nwEsutOwT-86" value="3台：&lt;span lang=&quot;EN-US&quot; style=&quot;font-size: 10.5pt ; font-family: &amp;#34;calibri&amp;#34; , &amp;#34;sans-serif&amp;#34;&quot;&gt;Data-centos&lt;/span&gt;&lt;br&gt;&lt;span&gt;Centos74&lt;/span&gt;&lt;span&gt;&amp;nbsp;&amp;nbsp;&lt;/span&gt;&lt;span&gt;cpu:4&amp;nbsp;&lt;/span&gt;&lt;span lang=&quot;EN-US&quot;&gt;&amp;nbsp;&lt;/span&gt;&lt;span&gt;磁盘&lt;/span&gt;&lt;span lang=&quot;EN-US&quot;&gt;:0.1t\16G&lt;br&gt;&lt;/span&gt;&lt;span&gt;共计：12核48G 0.3T&lt;br&gt;&lt;/span&gt;" style="rounded=0;whiteSpace=wrap;html=1;fillColor=#fff2cc;strokeColor=#d6b656;" parent="_sOQdATYZZMaT-qopSS8-1" vertex="1">
          <mxGeometry x="1371.75" y="195" width="170" height="60" as="geometry" />
        </mxCell>
        <mxCell id="VveefS2Lsn5nwEsutOwT-87" value="N1:172.16.10.21(16G)&lt;br&gt;N2:172.16.10.22(16G)&lt;br&gt;N3:172.16.10.23(16G)" style="rounded=0;whiteSpace=wrap;html=1;" parent="_sOQdATYZZMaT-qopSS8-1" vertex="1">
          <mxGeometry x="1381.75" y="265" width="150" height="50" as="geometry" />
        </mxCell>
        <mxCell id="VveefS2Lsn5nwEsutOwT-90" value="Win2008R2&lt;br&gt;&lt;p class=&quot;MsoNormal&quot; align=&quot;center&quot;&gt;&lt;span lang=&quot;EN-US&quot;&gt;172.16.8.8&lt;/span&gt;&lt;/p&gt;&lt;p class=&quot;MsoNormal&quot; align=&quot;center&quot;&gt;&lt;span lang=&quot;EN-US&quot;&gt;&lt;/span&gt;&lt;/p&gt;&lt;p class=&quot;MsoNormal&quot; align=&quot;center&quot;&gt;&lt;span lang=&quot;EN-US&quot;&gt;&amp;nbsp;cpu :4&lt;/span&gt;&lt;span&gt;内存&lt;/span&gt;&lt;span lang=&quot;EN-US&quot;&gt;:8192M &lt;/span&gt;&lt;span&gt;磁盘&lt;/span&gt;&lt;span lang=&quot;EN-US&quot;&gt;:0.5T&lt;/span&gt;&lt;/p&gt;" style="rounded=0;whiteSpace=wrap;html=1;" parent="_sOQdATYZZMaT-qopSS8-1" vertex="1">
          <mxGeometry x="1164.25" y="735" width="165" height="70" as="geometry" />
        </mxCell>
        <mxCell id="VveefS2Lsn5nwEsutOwT-93" style="edgeStyle=orthogonalEdgeStyle;rounded=0;orthogonalLoop=1;jettySize=auto;html=1;exitX=0.5;exitY=1;exitDx=0;exitDy=0;" parent="_sOQdATYZZMaT-qopSS8-1" source="VveefS2Lsn5nwEsutOwT-90" target="VveefS2Lsn5nwEsutOwT-90" edge="1">
          <mxGeometry relative="1" as="geometry" />
        </mxCell>
        <mxCell id="VveefS2Lsn5nwEsutOwT-98" value="" style="rounded=0;whiteSpace=wrap;html=1;" parent="_sOQdATYZZMaT-qopSS8-1" vertex="1">
          <mxGeometry x="1354.25" y="424.16999999999996" width="150" height="160" as="geometry" />
        </mxCell>
        <mxCell id="VveefS2Lsn5nwEsutOwT-99" value="&lt;p class=&quot;MsoNormal&quot; align=&quot;center&quot;&gt;&lt;/p&gt;&amp;nbsp; &amp;nbsp; &amp;nbsp; &amp;nbsp;2台 VRM&amp;nbsp; cpu:4&amp;nbsp; &amp;nbsp; &lt;span&gt;内存&lt;/span&gt;&lt;span lang=&quot;EN-US&quot;&gt;:5120M &lt;/span&gt;&lt;span&gt;磁盘&lt;/span&gt;&lt;span lang=&quot;EN-US&quot;&gt;:0.12T&lt;br&gt;共计：8核 内存:10G 磁盘：0.24T&lt;br&gt;&lt;/span&gt;" style="rounded=0;whiteSpace=wrap;html=1;fillColor=#fff2cc;strokeColor=#d6b656;" parent="_sOQdATYZZMaT-qopSS8-1" vertex="1">
          <mxGeometry x="1361.75" y="434.16999999999996" width="132.5" height="70" as="geometry" />
        </mxCell>
        <mxCell id="VveefS2Lsn5nwEsutOwT-100" value="&lt;p class=&quot;MsoNormal&quot; align=&quot;center&quot;&gt;02:172.16.8.19&lt;/p&gt;&lt;p class=&quot;MsoNormal&quot; align=&quot;center&quot;&gt;01:172.16.8.20&lt;/p&gt;&lt;p class=&quot;MsoNormal&quot; align=&quot;center&quot;&gt;172.16.8.18&lt;/p&gt;" style="rounded=0;whiteSpace=wrap;html=1;" parent="_sOQdATYZZMaT-qopSS8-1" vertex="1">
          <mxGeometry x="1376.75" y="514.17" width="102.5" height="60" as="geometry" />
        </mxCell>
        <mxCell id="VveefS2Lsn5nwEsutOwT-101" style="edgeStyle=orthogonalEdgeStyle;rounded=0;orthogonalLoop=1;jettySize=auto;html=1;exitX=0.5;exitY=1;exitDx=0;exitDy=0;" parent="_sOQdATYZZMaT-qopSS8-1" source="VveefS2Lsn5nwEsutOwT-98" target="VveefS2Lsn5nwEsutOwT-98" edge="1">
          <mxGeometry relative="1" as="geometry" />
        </mxCell>
        <mxCell id="ILvByJmzDbEsr_OMc3Pg-1" value="&lt;p class=&quot;MsoNormal&quot; align=&quot;center&quot;&gt;&lt;span lang=&quot;EN-US&quot;&gt;Test-java-CentOS-7.4&amp;nbsp; cpu :8&lt;/span&gt;&lt;/p&gt;&lt;span&gt;内存&lt;/span&gt;&lt;span lang=&quot;EN-US&quot;&gt;:8192M &lt;/span&gt;&lt;span&gt;磁盘：&lt;/span&gt;&lt;span lang=&quot;EN-US&quot;&gt;0.1T&lt;br&gt;&lt;p class=&quot;MsoNormal&quot; align=&quot;center&quot;&gt;&lt;span lang=&quot;EN-US&quot;&gt;172.16.10.204&lt;/span&gt;&lt;/p&gt;&lt;/span&gt;" style="rounded=0;whiteSpace=wrap;html=1;" parent="_sOQdATYZZMaT-qopSS8-1" vertex="1">
          <mxGeometry x="1356.75" y="725" width="175" height="80" as="geometry" />
        </mxCell>
        <mxCell id="ILvByJmzDbEsr_OMc3Pg-3" value="&lt;p class=&quot;MsoNormal&quot; align=&quot;center&quot;&gt;&lt;span lang=&quot;EN-US&quot;&gt;SourceServer-Ub&amp;nbsp; cpu:4&lt;/span&gt;&lt;/p&gt;&lt;span&gt;内存&lt;/span&gt;&lt;span lang=&quot;EN-US&quot;&gt;:16384M &lt;/span&gt;&lt;span&gt;磁盘&lt;/span&gt;&lt;span lang=&quot;EN-US&quot;&gt;:2.155T&lt;br&gt;&lt;p class=&quot;MsoNormal&quot; align=&quot;center&quot;&gt;&lt;span lang=&quot;EN-US&quot;&gt;172.16.10.250&lt;/span&gt;&lt;/p&gt;&lt;/span&gt;" style="rounded=0;whiteSpace=wrap;html=1;" parent="_sOQdATYZZMaT-qopSS8-1" vertex="1">
          <mxGeometry x="1174.25" y="585" width="165" height="90" as="geometry" />
        </mxCell>
        <mxCell id="ILvByJmzDbEsr_OMc3Pg-5" value="&lt;p class=&quot;MsoNormal&quot; align=&quot;center&quot;&gt;&lt;span lang=&quot;EN-US&quot;&gt;Rising-SVM&amp;nbsp; cpu:2&lt;/span&gt;&lt;/p&gt;&lt;span&gt;内存&lt;/span&gt;&lt;span lang=&quot;EN-US&quot;&gt;:2048M &lt;/span&gt;&lt;span&gt;磁盘&lt;/span&gt;&lt;span lang=&quot;EN-US&quot;&gt;:0.04T&lt;br&gt;&lt;p class=&quot;MsoNormal&quot; align=&quot;center&quot;&gt;&lt;span lang=&quot;EN-US&quot;&gt;172.16.10.98&lt;/span&gt;&lt;/p&gt;&lt;/span&gt;" style="rounded=0;whiteSpace=wrap;html=1;" parent="_sOQdATYZZMaT-qopSS8-1" vertex="1">
          <mxGeometry x="1150" y="975" width="164.25" height="90" as="geometry" />
        </mxCell>
        <mxCell id="ILvByJmzDbEsr_OMc3Pg-6" value="&lt;p class=&quot;MsoNormal&quot;&gt;&lt;span lang=&quot;EN-US&quot;&gt;REHE_6.5_MG_FU&amp;nbsp;&amp;nbsp; cpu:2&lt;/span&gt;&lt;/p&gt;&lt;span&gt;内存&lt;/span&gt;&lt;span lang=&quot;EN-US&quot;&gt;:8192M&amp;nbsp; &lt;/span&gt;&lt;span&gt;磁盘&lt;/span&gt;&lt;span lang=&quot;EN-US&quot;&gt;:0.2T&lt;/span&gt;&lt;br&gt;&lt;p class=&quot;MsoNormal&quot;&gt;&lt;span lang=&quot;EN-US&quot;&gt;&lt;/span&gt;&lt;/p&gt;&lt;p class=&quot;MsoNormal&quot;&gt;&lt;span lang=&quot;EN-US&quot;&gt;172.16.10.198&lt;/span&gt;&lt;/p&gt;" style="rounded=0;whiteSpace=wrap;html=1;" parent="_sOQdATYZZMaT-qopSS8-1" vertex="1">
          <mxGeometry x="1354.25" y="610" width="161.75" height="70" as="geometry" />
        </mxCell>
        <mxCell id="uSNJX9DwxcgCSr0mQPIk-0" value="&lt;p class=&quot;MsoNormal&quot;&gt;&lt;span lang=&quot;EN-US&quot;&gt;LDAP-Ubuntu1604&amp;nbsp; cpu:4&lt;/span&gt;&lt;/p&gt;&lt;span&gt;内存&lt;/span&gt;&lt;span lang=&quot;EN-US&quot;&gt;:4096M&amp;nbsp;&amp;nbsp; &lt;/span&gt;&lt;span&gt;磁盘&lt;/span&gt;&lt;span lang=&quot;EN-US&quot;&gt;:0.1T&lt;/span&gt;&lt;br&gt;&lt;p class=&quot;MsoNormal&quot;&gt;&lt;span lang=&quot;EN-US&quot;&gt;&lt;/span&gt;&lt;/p&gt;&lt;p class=&quot;MsoNormal&quot;&gt;&lt;span lang=&quot;EN-US&quot;&gt;172.16.10.251&lt;/span&gt;&lt;/p&gt;" style="rounded=0;whiteSpace=wrap;html=1;" parent="_sOQdATYZZMaT-qopSS8-1" vertex="1">
          <mxGeometry x="1150" y="879.1700000000001" width="161.75" height="90" as="geometry" />
        </mxCell>
        <mxCell id="uSNJX9DwxcgCSr0mQPIk-1" value="&lt;p class=&quot;MsoNormal&quot;&gt;&lt;span lang=&quot;EN-US&quot;&gt;Kypt-Redis-CentOS74&amp;nbsp; cpu :4&lt;/span&gt;&lt;/p&gt;&lt;span&gt;内存&lt;/span&gt;&lt;span lang=&quot;EN-US&quot;&gt;:16384M&amp;nbsp; &lt;/span&gt;&lt;span&gt;磁盘：&lt;/span&gt;&lt;span lang=&quot;EN-US&quot;&gt;0.1T&lt;/span&gt;&lt;br&gt;&lt;p class=&quot;MsoNormal&quot;&gt;&lt;span lang=&quot;EN-US&quot;&gt;&lt;/span&gt;&lt;/p&gt;&lt;p class=&quot;MsoNormal&quot;&gt;&lt;span lang=&quot;EN-US&quot;&gt;172.16.10.196&lt;/span&gt;&lt;/p&gt;" style="rounded=0;whiteSpace=wrap;html=1;" parent="_sOQdATYZZMaT-qopSS8-1" vertex="1">
          <mxGeometry x="821.5" y="595" width="161.75" height="70" as="geometry" />
        </mxCell>
        <mxCell id="uSNJX9DwxcgCSr0mQPIk-4" value="" style="rounded=0;whiteSpace=wrap;html=1;" parent="_sOQdATYZZMaT-qopSS8-1" vertex="1">
          <mxGeometry x="235" y="530" width="160" height="120" as="geometry" />
        </mxCell>
        <mxCell id="uSNJX9DwxcgCSr0mQPIk-5" value="3台:&lt;span&gt;IPFS-Ubuntu1604&lt;/span&gt;&lt;span&gt;&amp;nbsp;&amp;nbsp; &lt;/span&gt;&lt;span&gt;cpu:4&amp;nbsp;&lt;/span&gt;&lt;span&gt;内存&lt;/span&gt;&lt;span lang=&quot;EN-US&quot;&gt;:8G&amp;nbsp;&amp;nbsp;&lt;/span&gt;&lt;span lang=&quot;EN-US&quot;&gt;2.16t&lt;br&gt;&lt;/span&gt;&lt;span&gt;共计:12核 24G&amp;nbsp; 磁盘6.48T&lt;br&gt;&lt;/span&gt;" style="rounded=0;whiteSpace=wrap;html=1;fillColor=#fff2cc;strokeColor=#d6b656;" parent="_sOQdATYZZMaT-qopSS8-1" vertex="1">
          <mxGeometry x="240" y="540" width="147.5" height="50" as="geometry" />
        </mxCell>
        <mxCell id="uSNJX9DwxcgCSr0mQPIk-6" value="&lt;font style=&quot;font-size: 10px&quot;&gt;CORE1:172.16.10.231&lt;br&gt;CORE2:172.16.10.232&lt;br&gt;CORE3:172.16.10.233&lt;br&gt;&lt;/font&gt;" style="rounded=0;whiteSpace=wrap;html=1;" parent="_sOQdATYZZMaT-qopSS8-1" vertex="1">
          <mxGeometry x="245" y="595" width="140" height="45" as="geometry" />
        </mxCell>
        <mxCell id="RmF8rrvMvzuQaB33yWGe-2" style="edgeStyle=orthogonalEdgeStyle;rounded=0;orthogonalLoop=1;jettySize=auto;html=1;exitX=1;exitY=0.5;exitDx=0;exitDy=0;entryX=0;entryY=0.5;entryDx=0;entryDy=0;" parent="_sOQdATYZZMaT-qopSS8-1" source="uSNJX9DwxcgCSr0mQPIk-7" target="VveefS2Lsn5nwEsutOwT-70" edge="1">
          <mxGeometry relative="1" as="geometry" />
        </mxCell>
        <mxCell id="uSNJX9DwxcgCSr0mQPIk-7" value="&lt;p class=&quot;MsoNormal&quot;&gt;&lt;span lang=&quot;EN-US&quot;&gt;FeiYan-Win2008R2&amp;nbsp; &amp;nbsp;cpu :8&lt;/span&gt;&lt;/p&gt;&lt;span&gt;内存&lt;/span&gt;&lt;span lang=&quot;EN-US&quot;&gt;:32768&amp;nbsp; &lt;/span&gt;&lt;span&gt;磁盘&lt;/span&gt;&lt;span lang=&quot;EN-US&quot;&gt;:0.5T&lt;/span&gt;&lt;br&gt;&lt;p class=&quot;MsoNormal&quot;&gt;&lt;span lang=&quot;EN-US&quot;&gt;&lt;/span&gt;&lt;/p&gt;&lt;p class=&quot;MsoNormal&quot;&gt;&lt;span lang=&quot;EN-US&quot;&gt;172.16.10.94&lt;/span&gt;&lt;/p&gt;" style="rounded=0;whiteSpace=wrap;html=1;" parent="_sOQdATYZZMaT-qopSS8-1" vertex="1">
          <mxGeometry x="80" y="450" width="155" height="70" as="geometry" />
        </mxCell>
        <mxCell id="uSNJX9DwxcgCSr0mQPIk-8" value="&lt;p class=&quot;MsoNormal&quot;&gt;&lt;span lang=&quot;EN-US&quot;&gt;FSAgent&amp;nbsp; &amp;nbsp; &amp;nbsp;cpu :4&lt;/span&gt;&lt;/p&gt;&lt;span&gt;内存：&lt;/span&gt;&lt;span lang=&quot;EN-US&quot;&gt;8192M &lt;/span&gt;&lt;span&gt;磁盘：&lt;/span&gt;&lt;span lang=&quot;EN-US&quot;&gt;0.1T&lt;/span&gt;&lt;br&gt;&lt;p class=&quot;MsoNormal&quot;&gt;&lt;span lang=&quot;EN-US&quot;&gt;&lt;/span&gt;&lt;/p&gt;&lt;p class=&quot;MsoNormal&quot;&gt;&lt;span lang=&quot;EN-US&quot;&gt;172.16.10.238&lt;/span&gt;&lt;/p&gt;" style="rounded=0;whiteSpace=wrap;html=1;" parent="_sOQdATYZZMaT-qopSS8-1" vertex="1">
          <mxGeometry x="1324.25" y="895" width="140" height="90" as="geometry" />
        </mxCell>
        <mxCell id="uSNJX9DwxcgCSr0mQPIk-9" value="&lt;p class=&quot;MsoNormal&quot;&gt;&lt;span lang=&quot;EN-US&quot;&gt;DataGover-Win2008R2&amp;nbsp; &amp;nbsp;&amp;nbsp;&lt;/span&gt;&lt;/p&gt;cpu :8内存&lt;span lang=&quot;EN-US&quot;&gt;:16G&amp;nbsp;&amp;nbsp;&lt;/span&gt;磁盘：&lt;span lang=&quot;EN-US&quot;&gt;0.8T&lt;/span&gt;&lt;p class=&quot;MsoNormal&quot;&gt;&lt;span lang=&quot;EN-US&quot;&gt;172.16.10.139&lt;/span&gt;&lt;/p&gt;" style="rounded=0;whiteSpace=wrap;html=1;" parent="_sOQdATYZZMaT-qopSS8-1" vertex="1">
          <mxGeometry x="1184.25" y="485" width="160" height="80" as="geometry" />
        </mxCell>
        <mxCell id="uSNJX9DwxcgCSr0mQPIk-10" value="&lt;p class=&quot;MsoNormal&quot;&gt;&lt;/p&gt;GRAN&amp;nbsp; &amp;nbsp;&lt;br&gt;cpu:4内存&lt;span lang=&quot;EN-US&quot;&gt;:8G&amp;nbsp;&amp;nbsp;&lt;/span&gt;&lt;span lang=&quot;EN-US&quot;&gt;6.1T&lt;br&gt;&lt;span&gt;172.16.10.237&lt;/span&gt;&lt;/span&gt;&lt;span lang=&quot;EN-US&quot;&gt;&lt;br&gt;&lt;/span&gt;" style="rounded=0;whiteSpace=wrap;html=1;fillColor=#dae8fc;strokeColor=#6c8ebf;" parent="_sOQdATYZZMaT-qopSS8-1" vertex="1">
          <mxGeometry x="787.5" y="873.17" width="110" height="60" as="geometry" />
        </mxCell>
        <mxCell id="uSNJX9DwxcgCSr0mQPIk-11" value="" style="rounded=0;whiteSpace=wrap;html=1;" parent="_sOQdATYZZMaT-qopSS8-1" vertex="1">
          <mxGeometry x="80" y="530" width="150" height="130" as="geometry" />
        </mxCell>
        <mxCell id="uSNJX9DwxcgCSr0mQPIk-12" value="3台:Agent&amp;nbsp;&lt;br&gt;共计:12核 内存32G 磁盘0.3T" style="rounded=0;whiteSpace=wrap;html=1;fillColor=#fff2cc;strokeColor=#d6b656;" parent="_sOQdATYZZMaT-qopSS8-1" vertex="1">
          <mxGeometry x="97" y="540" width="120" height="50" as="geometry" />
        </mxCell>
        <mxCell id="uSNJX9DwxcgCSr0mQPIk-13" value="Redis:172.16.10.192&lt;br&gt;Mysql:172.16.10.190&lt;br&gt;Java:172.16.10.193" style="rounded=0;whiteSpace=wrap;html=1;" parent="_sOQdATYZZMaT-qopSS8-1" vertex="1">
          <mxGeometry x="97" y="600" width="120" height="50" as="geometry" />
        </mxCell>
        <mxCell id="RmF8rrvMvzuQaB33yWGe-8" style="edgeStyle=orthogonalEdgeStyle;rounded=0;orthogonalLoop=1;jettySize=auto;html=1;exitX=0;exitY=0.5;exitDx=0;exitDy=0;" parent="_sOQdATYZZMaT-qopSS8-1" source="RmF8rrvMvzuQaB33yWGe-6" target="VveefS2Lsn5nwEsutOwT-4" edge="1">
          <mxGeometry relative="1" as="geometry" />
        </mxCell>
        <mxCell id="RmF8rrvMvzuQaB33yWGe-9" style="edgeStyle=orthogonalEdgeStyle;rounded=0;orthogonalLoop=1;jettySize=auto;html=1;exitX=0;exitY=0.5;exitDx=0;exitDy=0;entryX=1;entryY=0.5;entryDx=0;entryDy=0;" parent="_sOQdATYZZMaT-qopSS8-1" source="RmF8rrvMvzuQaB33yWGe-6" target="VveefS2Lsn5nwEsutOwT-55" edge="1">
          <mxGeometry relative="1" as="geometry" />
        </mxCell>
        <mxCell id="RmF8rrvMvzuQaB33yWGe-6" value="计算" style="ellipse;whiteSpace=wrap;html=1;aspect=fixed;" parent="_sOQdATYZZMaT-qopSS8-1" vertex="1">
          <mxGeometry x="420" y="873.17" width="66" height="66" as="geometry" />
        </mxCell>
        <mxCell id="qQzqWTpzE-Hvz-Owr3Zb-1" value="&lt;span&gt;共计内存：144G&lt;br&gt;硬盘：8T&lt;br&gt;CPU：60&lt;br&gt;机器数目：11&lt;br&gt;&lt;/span&gt;" style="rounded=0;whiteSpace=wrap;html=1;fillColor=#fff2cc;strokeColor=#d6b656;" vertex="1" parent="_sOQdATYZZMaT-qopSS8-1">
          <mxGeometry x="50" y="95" width="147.5" height="65" as="geometry" />
        </mxCell>
        <mxCell id="qQzqWTpzE-Hvz-Owr3Zb-2" value="&lt;span&gt;共计内存：680G&lt;br&gt;硬盘：60.8T&lt;br&gt;CPU：160&lt;br&gt;机器数目：15&lt;br&gt;&lt;/span&gt;" style="rounded=0;whiteSpace=wrap;html=1;fillColor=#fff2cc;strokeColor=#d6b656;" vertex="1" parent="_sOQdATYZZMaT-qopSS8-1">
          <mxGeometry x="780" y="95" width="147.5" height="65" as="geometry" />
        </mxCell>
        <mxCell id="qQzqWTpzE-Hvz-Owr3Zb-3" value="&lt;span&gt;共计内存：156G&lt;br&gt;硬盘：5.2T&lt;br&gt;CPU：70&lt;br&gt;机器数目：16&lt;br&gt;&lt;/span&gt;" style="rounded=0;whiteSpace=wrap;html=1;fillColor=#fff2cc;strokeColor=#d6b656;" vertex="1" parent="_sOQdATYZZMaT-qopSS8-1">
          <mxGeometry x="1130" y="90" width="147.5" height="70" as="geometry" />
        </mxCell>
        <mxCell id="qQzqWTpzE-Hvz-Owr3Zb-4" value="&lt;span&gt;共计内存：392G&lt;br&gt;硬盘：220T&lt;br&gt;CPU：114&lt;br&gt;机器数目：11&lt;br&gt;&lt;/span&gt;" style="rounded=0;whiteSpace=wrap;html=1;fillColor=#fff2cc;strokeColor=#d6b656;" vertex="1" parent="_sOQdATYZZMaT-qopSS8-1">
          <mxGeometry x="972.5" y="770" width="147.5" height="65" as="geometry" />
        </mxCell>
      </root>
    </mxGraphModel>
  </diagram>
</mxfile>
